<svg xmlns="http://www.w3.org/2000/svg" xmlns:xlink="http://www.w3.org/1999/xlink" width="169" zoomAndPan="magnify" viewBox="0 0 126.75 54.75" height="73" preserveAspectRatio="xMidYMid meet" version="1.0"><defs><g/><clipPath id="36c4e85a7f"><path d="M 0.144531 11 L 14 11 L 14 39 L 0.144531 39 Z M 0.144531 11 " clip-rule="nonzero"/></clipPath><clipPath id="873b3e64de"><path d="M 54 11 L 79.699219 11 L 79.699219 33 L 54 33 Z M 54 11 " clip-rule="nonzero"/></clipPath><clipPath id="007e82cb4b"><rect x="0" width="80" y="0" height="42"/></clipPath><clipPath id="f0dccedea3"><path d="M 0.347656 1 L 0.828125 1 L 0.828125 2 L 0.347656 2 Z M 0.347656 1 " clip-rule="nonzero"/></clipPath><clipPath id="6e61a28e93"><rect x="0" width="1" y="0" height="3"/></clipPath></defs><g transform="matrix(1, 0, 0, 1, 22, 6)"><g clip-path="url(#007e82cb4b)"><g clip-path="url(#36c4e85a7f)"><g fill="#1f3560" fill-opacity="1"><g transform="translate(2.869319, 31.860727)"><g><path d="M 1.53125 6.265625 C -1.113281 6.265625 -2.4375 5.691406 -2.4375 4.546875 C -2.4375 4.148438 -2.265625 3.769531 -1.921875 3.40625 C -1.578125 3.039062 -1.257812 2.859375 -0.96875 2.859375 C -0.71875 2.859375 -0.476562 2.914062 -0.25 3.03125 C -0.0195312 3.144531 0.195312 3.335938 0.40625 3.609375 C 0.757812 4.023438 1.039062 4.351562 1.25 4.59375 C 1.457031 4.832031 1.6875 4.953125 1.9375 4.953125 C 2.613281 4.953125 3.117188 4.53125 3.453125 3.6875 C 3.785156 2.851562 3.953125 1.582031 3.953125 -0.125 L 3.953125 -17.265625 C 3.953125 -17.960938 3.804688 -18.457031 3.515625 -18.75 C 3.222656 -19.039062 2.675781 -19.269531 1.875 -19.4375 C 1.332031 -19.539062 1.0625 -19.757812 1.0625 -20.09375 C 1.0625 -20.21875 1.132812 -20.316406 1.28125 -20.390625 C 1.425781 -20.460938 1.59375 -20.5 1.78125 -20.5 C 2.300781 -20.5 2.796875 -20.488281 3.265625 -20.46875 C 3.742188 -20.445312 4.210938 -20.425781 4.671875 -20.40625 C 5.128906 -20.382812 5.578125 -20.375 6.015625 -20.375 C 6.429688 -20.375 6.847656 -20.382812 7.265625 -20.40625 C 7.691406 -20.425781 8.132812 -20.445312 8.59375 -20.46875 C 9.050781 -20.488281 9.53125 -20.5 10.03125 -20.5 C 10.238281 -20.5 10.40625 -20.460938 10.53125 -20.390625 C 10.65625 -20.316406 10.71875 -20.207031 10.71875 -20.0625 C 10.71875 -19.894531 10.648438 -19.765625 10.515625 -19.671875 C 10.378906 -19.578125 10.175781 -19.5 9.90625 -19.4375 C 9.09375 -19.226562 8.570312 -18.976562 8.34375 -18.6875 C 8.113281 -18.40625 8 -17.921875 8 -17.234375 L 8 -2.28125 C 8 -1.613281 7.875 -0.921875 7.625 -0.203125 C 7.382812 0.515625 7.070312 1.210938 6.6875 1.890625 C 6.300781 2.578125 5.898438 3.191406 5.484375 3.734375 C 4.921875 4.460938 4.304688 5.066406 3.640625 5.546875 C 2.972656 6.023438 2.269531 6.265625 1.53125 6.265625 Z M 1.53125 6.265625 "/></g></g></g></g><g fill="#1f3560" fill-opacity="1"><g transform="translate(13.836958, 31.860727)"><g><path d="M 1.53125 0.15625 C 1.300781 0.15625 1.117188 0.113281 0.984375 0.03125 C 0.847656 -0.0507812 0.78125 -0.15625 0.78125 -0.28125 C 0.78125 -0.550781 1.050781 -0.75 1.59375 -0.875 C 2.351562 -1.0625 2.894531 -1.296875 3.21875 -1.578125 C 3.539062 -1.859375 3.703125 -2.347656 3.703125 -3.046875 L 3.703125 -17.234375 C 3.703125 -17.953125 3.5625 -18.457031 3.28125 -18.75 C 3 -19.039062 2.46875 -19.269531 1.6875 -19.4375 C 1.394531 -19.5 1.1875 -19.585938 1.0625 -19.703125 C 0.9375 -19.816406 0.875 -19.9375 0.875 -20.0625 C 0.875 -20.207031 0.941406 -20.316406 1.078125 -20.390625 C 1.210938 -20.460938 1.394531 -20.5 1.625 -20.5 C 2.226562 -20.5 2.804688 -20.488281 3.359375 -20.46875 C 3.921875 -20.445312 4.460938 -20.425781 4.984375 -20.40625 C 5.503906 -20.382812 6.046875 -20.375 6.609375 -20.375 C 7.578125 -20.375 8.597656 -20.382812 9.671875 -20.40625 C 10.742188 -20.425781 11.707031 -20.4375 12.5625 -20.4375 C 13.257812 -20.457031 13.832031 -20.488281 14.28125 -20.53125 C 14.726562 -20.570312 14.992188 -20.59375 15.078125 -20.59375 C 15.222656 -20.59375 15.375 -20.5625 15.53125 -20.5 C 15.6875 -20.4375 15.773438 -20.3125 15.796875 -20.125 C 15.878906 -19.4375 15.984375 -18.753906 16.109375 -18.078125 C 16.234375 -17.410156 16.296875 -16.828125 16.296875 -16.328125 C 16.296875 -16.140625 16.25 -16 16.15625 -15.90625 C 16.0625 -15.8125 15.960938 -15.765625 15.859375 -15.765625 C 15.753906 -15.765625 15.660156 -15.800781 15.578125 -15.875 C 15.492188 -15.945312 15.421875 -16.054688 15.359375 -16.203125 C 15.191406 -16.679688 15.035156 -17.097656 14.890625 -17.453125 C 14.742188 -17.804688 14.578125 -18.078125 14.390625 -18.265625 C 14.117188 -18.566406 13.800781 -18.800781 13.4375 -18.96875 C 13.082031 -19.132812 12.65625 -19.21875 12.15625 -19.21875 L 9.25 -19.21875 C 8.875 -19.21875 8.523438 -19.109375 8.203125 -18.890625 C 7.890625 -18.671875 7.734375 -18.359375 7.734375 -17.953125 L 7.734375 -11.8125 C 7.734375 -11.582031 7.800781 -11.40625 7.9375 -11.28125 C 8.082031 -11.15625 8.25 -11.09375 8.4375 -11.09375 L 11.3125 -11.09375 C 11.875 -11.09375 12.273438 -11.25 12.515625 -11.5625 C 12.753906 -11.875 12.960938 -12.300781 13.140625 -12.84375 C 13.285156 -13.269531 13.484375 -13.484375 13.734375 -13.484375 C 13.835938 -13.484375 13.929688 -13.425781 14.015625 -13.3125 C 14.097656 -13.195312 14.140625 -13.039062 14.140625 -12.84375 C 14.117188 -12.632812 14.097656 -12.382812 14.078125 -12.09375 C 14.054688 -11.800781 14.039062 -11.507812 14.03125 -11.21875 C 14.019531 -10.925781 14.015625 -10.664062 14.015625 -10.4375 C 14.015625 -10.1875 14.019531 -9.90625 14.03125 -9.59375 C 14.039062 -9.28125 14.050781 -8.972656 14.0625 -8.671875 C 14.070312 -8.367188 14.085938 -8.113281 14.109375 -7.90625 C 14.128906 -7.664062 14.113281 -7.484375 14.0625 -7.359375 C 14.007812 -7.234375 13.921875 -7.171875 13.796875 -7.171875 C 13.460938 -7.171875 13.222656 -7.46875 13.078125 -8.0625 C 12.898438 -8.644531 12.695312 -9.082031 12.46875 -9.375 C 12.238281 -9.664062 11.925781 -9.8125 11.53125 -9.8125 L 8.59375 -9.8125 C 8.320312 -9.8125 8.109375 -9.757812 7.953125 -9.65625 C 7.804688 -9.550781 7.734375 -9.351562 7.734375 -9.0625 L 7.734375 -3.109375 C 7.734375 -2.410156 7.878906 -1.925781 8.171875 -1.65625 C 8.472656 -1.382812 8.925781 -1.25 9.53125 -1.25 L 12.09375 -1.25 C 12.613281 -1.25 13.085938 -1.300781 13.515625 -1.40625 C 13.953125 -1.507812 14.328125 -1.675781 14.640625 -1.90625 C 14.992188 -2.15625 15.3125 -2.492188 15.59375 -2.921875 C 15.875 -3.359375 16.148438 -3.835938 16.421875 -4.359375 C 16.503906 -4.523438 16.585938 -4.632812 16.671875 -4.6875 C 16.753906 -4.738281 16.859375 -4.765625 16.984375 -4.765625 C 17.085938 -4.742188 17.164062 -4.679688 17.21875 -4.578125 C 17.269531 -4.472656 17.296875 -4.359375 17.296875 -4.234375 C 17.296875 -3.941406 17.242188 -3.5625 17.140625 -3.09375 C 17.035156 -2.632812 16.90625 -2.160156 16.75 -1.671875 C 16.59375 -1.179688 16.453125 -0.726562 16.328125 -0.3125 C 16.265625 -0.164062 16.179688 -0.0546875 16.078125 0.015625 C 15.972656 0.0859375 15.847656 0.125 15.703125 0.125 C 15.203125 0.125 14.554688 0.117188 13.765625 0.109375 C 12.984375 0.0976562 12.132812 0.0820312 11.21875 0.0625 C 10.300781 0.0390625 9.359375 0.0234375 8.390625 0.015625 C 7.429688 0.00390625 6.515625 0 5.640625 0 C 5.203125 0 4.757812 0.0078125 4.3125 0.03125 C 3.863281 0.0507812 3.40625 0.078125 2.9375 0.109375 C 2.476562 0.140625 2.007812 0.15625 1.53125 0.15625 Z M 1.53125 0.15625 "/></g></g></g><g fill="#1f3560" fill-opacity="1"><g transform="translate(31.416532, 31.860727)"><g><path d="M 20.125 0.65625 C 19.226562 0.65625 18.441406 0.554688 17.765625 0.359375 C 17.097656 0.160156 16.523438 -0.125 16.046875 -0.5 C 15.566406 -0.875 15.128906 -1.3125 14.734375 -1.8125 C 14.273438 -2.445312 13.820312 -3.0625 13.375 -3.65625 C 12.9375 -4.25 12.492188 -4.90625 12.046875 -5.625 C 11.597656 -6.34375 11.101562 -7.207031 10.5625 -8.21875 C 10.289062 -8.695312 9.945312 -9.050781 9.53125 -9.28125 C 9.257812 -9.425781 8.984375 -9.53125 8.703125 -9.59375 C 8.421875 -9.65625 8.1875 -9.6875 8 -9.6875 C 7.863281 -9.707031 7.765625 -9.65625 7.703125 -9.53125 C 7.640625 -9.40625 7.609375 -9.25 7.609375 -9.0625 L 7.609375 -3.234375 C 7.609375 -2.578125 7.78125 -2.070312 8.125 -1.71875 C 8.476562 -1.363281 9.070312 -1.09375 9.90625 -0.90625 C 10.175781 -0.863281 10.375 -0.796875 10.5 -0.703125 C 10.625 -0.609375 10.6875 -0.476562 10.6875 -0.3125 C 10.6875 -0.164062 10.628906 -0.0625 10.515625 0 C 10.398438 0.0625 10.226562 0.09375 10 0.09375 C 9.519531 0.09375 9.023438 0.078125 8.515625 0.046875 C 8.015625 0.015625 7.53125 -0.0078125 7.0625 -0.03125 C 6.59375 -0.0507812 6.148438 -0.0625 5.734375 -0.0625 C 5.273438 -0.0625 4.800781 -0.0507812 4.3125 -0.03125 C 3.820312 -0.0078125 3.320312 0.0195312 2.8125 0.0625 C 2.3125 0.101562 1.8125 0.125 1.3125 0.125 C 1.125 0.125 0.957031 0.0859375 0.8125 0.015625 C 0.664062 -0.0546875 0.59375 -0.15625 0.59375 -0.28125 C 0.59375 -0.59375 0.851562 -0.800781 1.375 -0.90625 C 2.164062 -1.070312 2.726562 -1.300781 3.0625 -1.59375 C 3.40625 -1.882812 3.578125 -2.378906 3.578125 -3.078125 L 3.578125 -16.921875 C 3.578125 -17.523438 3.53125 -17.988281 3.4375 -18.3125 C 3.34375 -18.644531 3.15625 -18.894531 2.875 -19.0625 C 2.601562 -19.226562 2.195312 -19.351562 1.65625 -19.4375 C 1.363281 -19.476562 1.15625 -19.5625 1.03125 -19.6875 C 0.90625 -19.8125 0.84375 -19.9375 0.84375 -20.0625 C 0.84375 -20.207031 0.910156 -20.316406 1.046875 -20.390625 C 1.179688 -20.460938 1.363281 -20.5 1.59375 -20.5 C 2.21875 -20.5 2.71875 -20.488281 3.09375 -20.46875 C 3.476562 -20.445312 3.84375 -20.421875 4.1875 -20.390625 C 4.53125 -20.359375 4.941406 -20.34375 5.421875 -20.34375 C 5.878906 -20.34375 6.285156 -20.363281 6.640625 -20.40625 C 6.992188 -20.445312 7.390625 -20.488281 7.828125 -20.53125 C 8.273438 -20.570312 8.84375 -20.59375 9.53125 -20.59375 C 11.9375 -20.59375 13.773438 -20.171875 15.046875 -19.328125 C 16.316406 -18.492188 16.953125 -17.222656 16.953125 -15.515625 C 16.953125 -14.578125 16.753906 -13.773438 16.359375 -13.109375 C 15.960938 -12.453125 15.46875 -11.914062 14.875 -11.5 C 14.28125 -11.082031 13.664062 -10.757812 13.03125 -10.53125 C 12.945312 -10.507812 12.910156 -10.457031 12.921875 -10.375 C 12.929688 -10.289062 12.96875 -10.21875 13.03125 -10.15625 C 13.664062 -9.195312 14.28125 -8.28125 14.875 -7.40625 C 15.46875 -6.539062 16.09375 -5.722656 16.75 -4.953125 C 17.40625 -4.179688 18.125 -3.441406 18.90625 -2.734375 C 19.550781 -2.117188 20.210938 -1.753906 20.890625 -1.640625 C 21.566406 -1.523438 22.269531 -1.46875 23 -1.46875 C 23.3125 -1.46875 23.46875 -1.3125 23.46875 -1 C 23.46875 -0.582031 23.3125 -0.253906 23 -0.015625 C 22.6875 0.222656 22.273438 0.394531 21.765625 0.5 C 21.253906 0.601562 20.707031 0.65625 20.125 0.65625 Z M 8.96875 -10.59375 C 9.820312 -10.59375 10.535156 -10.785156 11.109375 -11.171875 C 11.679688 -11.554688 12.117188 -12.070312 12.421875 -12.71875 C 12.722656 -13.375 12.875 -14.097656 12.875 -14.890625 C 12.875 -15.828125 12.757812 -16.625 12.53125 -17.28125 C 12.300781 -17.9375 11.910156 -18.445312 11.359375 -18.8125 C 10.804688 -19.1875 10.050781 -19.375 9.09375 -19.375 C 8.550781 -19.375 8.175781 -19.175781 7.96875 -18.78125 C 7.769531 -18.394531 7.660156 -17.617188 7.640625 -16.453125 C 7.617188 -15.972656 7.609375 -15.34375 7.609375 -14.5625 C 7.609375 -13.78125 7.609375 -12.84375 7.609375 -11.75 C 7.609375 -11.289062 7.726562 -10.984375 7.96875 -10.828125 C 8.21875 -10.671875 8.550781 -10.59375 8.96875 -10.59375 Z M 8.96875 -10.59375 "/></g></g></g><g clip-path="url(#873b3e64de)"><g fill="#1f3560" fill-opacity="1"><g transform="translate(54.417266, 31.860727)"><g><path d="M 21.1875 0.5625 C 20.9375 0.5625 20.519531 0.40625 19.9375 0.09375 C 19.351562 -0.21875 18.753906 -0.757812 18.140625 -1.53125 C 17.785156 -1.925781 17.351562 -2.410156 16.84375 -2.984375 C 16.332031 -3.566406 15.769531 -4.203125 15.15625 -4.890625 C 14.539062 -5.578125 13.894531 -6.296875 13.21875 -7.046875 C 12.550781 -7.804688 11.890625 -8.5625 11.234375 -9.3125 C 10.578125 -10.0625 9.9375 -10.78125 9.3125 -11.46875 C 8.6875 -12.15625 8.109375 -12.785156 7.578125 -13.359375 C 7.054688 -13.941406 6.617188 -14.441406 6.265625 -14.859375 C 6.179688 -14.960938 6.09375 -15.050781 6 -15.125 C 5.90625 -15.195312 5.828125 -15.234375 5.765625 -15.234375 C 5.679688 -15.234375 5.617188 -15.160156 5.578125 -15.015625 C 5.535156 -14.867188 5.515625 -14.734375 5.515625 -14.609375 C 5.515625 -13.648438 5.519531 -12.507812 5.53125 -11.1875 C 5.539062 -9.875 5.546875 -8.535156 5.546875 -7.171875 C 5.546875 -5.816406 5.546875 -4.566406 5.546875 -3.421875 C 5.546875 -2.765625 5.734375 -2.226562 6.109375 -1.8125 C 6.484375 -1.394531 7.082031 -1.09375 7.90625 -0.90625 C 8.15625 -0.863281 8.367188 -0.796875 8.546875 -0.703125 C 8.722656 -0.609375 8.8125 -0.476562 8.8125 -0.3125 C 8.8125 -0.164062 8.726562 -0.0625 8.5625 0 C 8.394531 0.0625 8.207031 0.09375 8 0.09375 C 7.425781 0.09375 6.972656 0.0820312 6.640625 0.0625 C 6.304688 0.0390625 6.003906 0.0195312 5.734375 0 C 5.460938 -0.0195312 5.117188 -0.03125 4.703125 -0.03125 C 4.265625 -0.03125 3.875 -0.0195312 3.53125 0 C 3.1875 0.0195312 2.875 0.046875 2.59375 0.078125 C 2.320312 0.109375 2.0625 0.125 1.8125 0.125 C 1.601562 0.125 1.414062 0.0859375 1.25 0.015625 C 1.082031 -0.0546875 1 -0.15625 1 -0.28125 C 1 -0.445312 1.078125 -0.578125 1.234375 -0.671875 C 1.390625 -0.765625 1.601562 -0.851562 1.875 -0.9375 C 2.425781 -1.101562 2.832031 -1.410156 3.09375 -1.859375 C 3.351562 -2.304688 3.515625 -2.847656 3.578125 -3.484375 C 3.660156 -4.273438 3.742188 -5.3125 3.828125 -6.59375 C 3.910156 -7.882812 3.988281 -9.332031 4.0625 -10.9375 C 4.132812 -12.550781 4.171875 -14.210938 4.171875 -15.921875 C 4.171875 -17.003906 3.890625 -17.785156 3.328125 -18.265625 C 2.773438 -18.753906 2.082031 -19.144531 1.25 -19.4375 C 1.101562 -19.476562 0.914062 -19.5625 0.6875 -19.6875 C 0.457031 -19.8125 0.34375 -19.96875 0.34375 -20.15625 C 0.34375 -20.34375 0.425781 -20.46875 0.59375 -20.53125 C 0.757812 -20.59375 0.9375 -20.625 1.125 -20.625 C 1.5625 -20.625 2 -20.613281 2.4375 -20.59375 C 2.882812 -20.570312 3.332031 -20.554688 3.78125 -20.546875 C 4.226562 -20.535156 4.695312 -20.519531 5.1875 -20.5 C 5.675781 -20.476562 6.203125 -20.46875 6.765625 -20.46875 C 6.953125 -20.46875 7.09375 -20.429688 7.1875 -20.359375 C 7.28125 -20.285156 7.367188 -20.1875 7.453125 -20.0625 C 7.796875 -19.664062 8.226562 -19.164062 8.75 -18.5625 C 9.269531 -17.96875 9.835938 -17.3125 10.453125 -16.59375 C 11.066406 -15.875 11.710938 -15.117188 12.390625 -14.328125 C 13.078125 -13.535156 13.757812 -12.738281 14.4375 -11.9375 C 15.113281 -11.144531 15.765625 -10.390625 16.390625 -9.671875 C 17.015625 -8.953125 17.582031 -8.289062 18.09375 -7.6875 C 18.613281 -7.09375 19.039062 -6.609375 19.375 -6.234375 C 19.457031 -6.148438 19.554688 -6.046875 19.671875 -5.921875 C 19.785156 -5.796875 19.882812 -5.734375 19.96875 -5.734375 C 20.132812 -5.734375 20.226562 -5.910156 20.25 -6.265625 C 20.25 -6.804688 20.25 -7.5 20.25 -8.34375 C 20.25 -9.195312 20.253906 -10.140625 20.265625 -11.171875 C 20.273438 -12.203125 20.273438 -13.257812 20.265625 -14.34375 C 20.253906 -15.4375 20.238281 -16.484375 20.21875 -17.484375 C 20.195312 -18.003906 19.984375 -18.414062 19.578125 -18.71875 C 19.171875 -19.03125 18.660156 -19.25 18.046875 -19.375 C 17.796875 -19.4375 17.5625 -19.515625 17.34375 -19.609375 C 17.125 -19.703125 17.015625 -19.84375 17.015625 -20.03125 C 17.015625 -20.175781 17.125 -20.28125 17.34375 -20.34375 C 17.5625 -20.40625 17.765625 -20.4375 17.953125 -20.4375 C 18.378906 -20.4375 18.734375 -20.4375 19.015625 -20.4375 C 19.296875 -20.4375 19.5625 -20.429688 19.8125 -20.421875 C 20.0625 -20.410156 20.320312 -20.40625 20.59375 -20.40625 C 21.050781 -20.40625 21.425781 -20.410156 21.71875 -20.421875 C 22.007812 -20.429688 22.328125 -20.445312 22.671875 -20.46875 C 23.015625 -20.488281 23.472656 -20.5 24.046875 -20.5 C 24.296875 -20.5 24.5 -20.460938 24.65625 -20.390625 C 24.8125 -20.316406 24.890625 -20.21875 24.890625 -20.09375 C 24.890625 -19.78125 24.585938 -19.5625 23.984375 -19.4375 C 23.242188 -19.289062 22.722656 -19.09375 22.421875 -18.84375 C 22.117188 -18.59375 21.957031 -18.171875 21.9375 -17.578125 C 21.9375 -17.054688 21.929688 -16.390625 21.921875 -15.578125 C 21.910156 -14.765625 21.894531 -13.875 21.875 -12.90625 C 21.851562 -11.945312 21.828125 -10.96875 21.796875 -9.96875 C 21.765625 -8.96875 21.742188 -7.984375 21.734375 -7.015625 C 21.722656 -6.054688 21.71875 -5.191406 21.71875 -4.421875 C 21.71875 -3.921875 21.738281 -3.40625 21.78125 -2.875 C 21.820312 -2.351562 21.867188 -1.890625 21.921875 -1.484375 C 21.972656 -1.078125 22 -0.789062 22 -0.625 C 22 -0.164062 21.925781 0.144531 21.78125 0.3125 C 21.632812 0.476562 21.4375 0.5625 21.1875 0.5625 Z M 21.1875 0.5625 "/></g></g></g></g></g></g><g transform="matrix(1, 0, 0, 1, 82, 23)"><g clip-path="url(#6e61a28e93)"><g clip-path="url(#f0dccedea3)"><g fill="#ffffff" fill-opacity="1"><g transform="translate(0.47558, 1.815744)"><g><path d="M 0.171875 -0.578125 C 0.191406 -0.578125 0.207031 -0.566406 0.21875 -0.546875 C 0.226562 -0.535156 0.234375 -0.519531 0.234375 -0.5 C 0.234375 -0.46875 0.222656 -0.441406 0.203125 -0.421875 C 0.179688 -0.410156 0.15625 -0.40625 0.125 -0.40625 C 0.101562 -0.40625 0.0820312 -0.410156 0.0625 -0.421875 C 0.0390625 -0.441406 0.03125 -0.46875 0.03125 -0.5 C 0.03125 -0.507812 0.03125 -0.519531 0.03125 -0.53125 C 0.0390625 -0.550781 0.0507812 -0.570312 0.0625 -0.59375 L 0.125 -0.734375 L 0.21875 -0.734375 Z M 0.171875 -0.578125 "/></g></g></g></g></g></g></svg>