<svg xmlns="http://www.w3.org/2000/svg" xmlns:xlink="http://www.w3.org/1999/xlink" width="148" zoomAndPan="magnify" viewBox="0 0 110.88 60" height="80" preserveAspectRatio="xMidYMid meet" version="1.0"><defs><g/><clipPath id="b6fcef69d1"><path d="M 0.871094 0.984375 L 90.773438 0.984375 L 90.773438 47.015625 L 0.871094 47.015625 Z M 0.871094 0.984375 " clip-rule="nonzero"/></clipPath><clipPath id="66ae287339"><rect x="0" width="91" y="0" height="48"/></clipPath><clipPath id="70140dead8"><path d="M 0.367188 0.246094 L 0.847656 0.246094 L 0.847656 1 L 0.367188 1 Z M 0.367188 0.246094 " clip-rule="nonzero"/></clipPath><clipPath id="bcfcd08de4"><rect x="0" width="1" y="0" height="2"/></clipPath><clipPath id="a6786eaa18"><rect x="0" width="91" y="0" height="48"/></clipPath></defs><g transform="matrix(1, 0, 0, 1, 8, 6)"><g clip-path="url(#a6786eaa18)"><g clip-path="url(#b6fcef69d1)"><g transform="matrix(1, 0, 0, 1, 0, -0.000000000000004441)"><g clip-path="url(#66ae287339)"><g fill="#1f3560" fill-opacity="1"><g transform="translate(4.332579, 36.339101)"><g><path d="M 1.71875 6.984375 C -1.238281 6.984375 -2.71875 6.34375 -2.71875 5.0625 C -2.71875 4.625 -2.523438 4.203125 -2.140625 3.796875 C -1.765625 3.390625 -1.410156 3.1875 -1.078125 3.1875 C -0.804688 3.1875 -0.539062 3.25 -0.28125 3.375 C -0.0195312 3.5 0.222656 3.710938 0.453125 4.015625 C 0.847656 4.484375 1.160156 4.847656 1.390625 5.109375 C 1.628906 5.378906 1.890625 5.515625 2.171875 5.515625 C 2.910156 5.515625 3.46875 5.046875 3.84375 4.109375 C 4.21875 3.179688 4.40625 1.765625 4.40625 -0.140625 L 4.40625 -19.265625 C 4.40625 -20.023438 4.238281 -20.566406 3.90625 -20.890625 C 3.582031 -21.222656 2.976562 -21.484375 2.09375 -21.671875 C 1.488281 -21.785156 1.1875 -22.03125 1.1875 -22.40625 C 1.1875 -22.539062 1.265625 -22.648438 1.421875 -22.734375 C 1.585938 -22.816406 1.78125 -22.859375 2 -22.859375 C 2.570312 -22.859375 3.117188 -22.847656 3.640625 -22.828125 C 4.171875 -22.804688 4.691406 -22.78125 5.203125 -22.75 C 5.722656 -22.726562 6.226562 -22.71875 6.71875 -22.71875 C 7.175781 -22.71875 7.640625 -22.726562 8.109375 -22.75 C 8.578125 -22.78125 9.066406 -22.804688 9.578125 -22.828125 C 10.085938 -22.847656 10.625 -22.859375 11.1875 -22.859375 C 11.414062 -22.859375 11.597656 -22.816406 11.734375 -22.734375 C 11.878906 -22.648438 11.953125 -22.53125 11.953125 -22.375 C 11.953125 -22.1875 11.875 -22.039062 11.71875 -21.9375 C 11.570312 -21.832031 11.347656 -21.742188 11.046875 -21.671875 C 10.140625 -21.441406 9.554688 -21.164062 9.296875 -20.84375 C 9.035156 -20.53125 8.90625 -19.988281 8.90625 -19.21875 L 8.90625 -2.546875 C 8.90625 -1.804688 8.769531 -1.03125 8.5 -0.21875 C 8.238281 0.582031 7.890625 1.359375 7.453125 2.109375 C 7.023438 2.867188 6.578125 3.550781 6.109375 4.15625 C 5.484375 4.96875 4.796875 5.640625 4.046875 6.171875 C 3.304688 6.710938 2.53125 6.984375 1.71875 6.984375 Z M 1.71875 6.984375 "/></g></g></g><g fill="#1f3560" fill-opacity="1"><g transform="translate(16.56255, 36.339101)"><g><path d="M 1.71875 0.171875 C 1.457031 0.171875 1.25 0.125 1.09375 0.03125 C 0.945312 -0.0625 0.875 -0.175781 0.875 -0.3125 C 0.875 -0.613281 1.175781 -0.835938 1.78125 -0.984375 C 2.625 -1.191406 3.222656 -1.453125 3.578125 -1.765625 C 3.941406 -2.078125 4.125 -2.617188 4.125 -3.390625 L 4.125 -19.21875 C 4.125 -20.007812 3.96875 -20.566406 3.65625 -20.890625 C 3.34375 -21.222656 2.753906 -21.484375 1.890625 -21.671875 C 1.554688 -21.742188 1.320312 -21.84375 1.1875 -21.96875 C 1.050781 -22.09375 0.984375 -22.226562 0.984375 -22.375 C 0.984375 -22.53125 1.054688 -22.648438 1.203125 -22.734375 C 1.359375 -22.816406 1.5625 -22.859375 1.8125 -22.859375 C 2.488281 -22.859375 3.132812 -22.847656 3.75 -22.828125 C 4.375 -22.804688 4.976562 -22.78125 5.5625 -22.75 C 6.144531 -22.726562 6.75 -22.71875 7.375 -22.71875 C 8.445312 -22.71875 9.582031 -22.726562 10.78125 -22.75 C 11.976562 -22.78125 13.054688 -22.796875 14.015625 -22.796875 C 14.785156 -22.816406 15.421875 -22.847656 15.921875 -22.890625 C 16.421875 -22.941406 16.71875 -22.96875 16.8125 -22.96875 C 16.976562 -22.96875 17.144531 -22.929688 17.3125 -22.859375 C 17.488281 -22.785156 17.585938 -22.644531 17.609375 -22.4375 C 17.703125 -21.664062 17.816406 -20.90625 17.953125 -20.15625 C 18.097656 -19.414062 18.171875 -18.765625 18.171875 -18.203125 C 18.171875 -17.992188 18.117188 -17.835938 18.015625 -17.734375 C 17.910156 -17.628906 17.800781 -17.578125 17.6875 -17.578125 C 17.570312 -17.578125 17.46875 -17.617188 17.375 -17.703125 C 17.28125 -17.785156 17.195312 -17.910156 17.125 -18.078125 C 16.9375 -18.609375 16.757812 -19.070312 16.59375 -19.46875 C 16.4375 -19.863281 16.253906 -20.164062 16.046875 -20.375 C 15.742188 -20.695312 15.394531 -20.953125 15 -21.140625 C 14.601562 -21.328125 14.125 -21.421875 13.5625 -21.421875 L 10.3125 -21.421875 C 9.894531 -21.421875 9.507812 -21.296875 9.15625 -21.046875 C 8.8125 -20.804688 8.640625 -20.46875 8.640625 -20.03125 L 8.640625 -13.171875 C 8.640625 -12.921875 8.710938 -12.722656 8.859375 -12.578125 C 9.015625 -12.441406 9.195312 -12.375 9.40625 -12.375 L 12.625 -12.375 C 13.25 -12.375 13.691406 -12.546875 13.953125 -12.890625 C 14.222656 -13.242188 14.453125 -13.722656 14.640625 -14.328125 C 14.804688 -14.796875 15.03125 -15.03125 15.3125 -15.03125 C 15.425781 -15.03125 15.53125 -14.960938 15.625 -14.828125 C 15.71875 -14.703125 15.765625 -14.535156 15.765625 -14.328125 C 15.742188 -14.097656 15.71875 -13.816406 15.6875 -13.484375 C 15.664062 -13.160156 15.648438 -12.835938 15.640625 -12.515625 C 15.628906 -12.191406 15.625 -11.898438 15.625 -11.640625 C 15.625 -11.359375 15.628906 -11.039062 15.640625 -10.6875 C 15.648438 -10.34375 15.660156 -10 15.671875 -9.65625 C 15.679688 -9.320312 15.703125 -9.039062 15.734375 -8.8125 C 15.753906 -8.550781 15.734375 -8.347656 15.671875 -8.203125 C 15.617188 -8.066406 15.519531 -8 15.375 -8 C 15 -8 14.734375 -8.328125 14.578125 -8.984375 C 14.390625 -9.640625 14.164062 -10.128906 13.90625 -10.453125 C 13.65625 -10.773438 13.304688 -10.9375 12.859375 -10.9375 L 9.578125 -10.9375 C 9.273438 -10.9375 9.039062 -10.878906 8.875 -10.765625 C 8.71875 -10.648438 8.640625 -10.425781 8.640625 -10.09375 L 8.640625 -3.453125 C 8.640625 -2.691406 8.800781 -2.15625 9.125 -1.84375 C 9.445312 -1.539062 9.945312 -1.390625 10.625 -1.390625 L 13.484375 -1.390625 C 14.066406 -1.390625 14.597656 -1.445312 15.078125 -1.5625 C 15.554688 -1.6875 15.972656 -1.875 16.328125 -2.125 C 16.722656 -2.40625 17.078125 -2.785156 17.390625 -3.265625 C 17.703125 -3.742188 18.007812 -4.273438 18.3125 -4.859375 C 18.40625 -5.046875 18.5 -5.164062 18.59375 -5.21875 C 18.6875 -5.28125 18.800781 -5.3125 18.9375 -5.3125 C 19.0625 -5.289062 19.148438 -5.21875 19.203125 -5.09375 C 19.265625 -4.976562 19.296875 -4.851562 19.296875 -4.71875 C 19.296875 -4.394531 19.234375 -3.972656 19.109375 -3.453125 C 18.992188 -2.941406 18.847656 -2.410156 18.671875 -1.859375 C 18.503906 -1.316406 18.347656 -0.8125 18.203125 -0.34375 C 18.140625 -0.1875 18.046875 -0.0664062 17.921875 0.015625 C 17.804688 0.0976562 17.671875 0.140625 17.515625 0.140625 C 16.953125 0.140625 16.234375 0.132812 15.359375 0.125 C 14.484375 0.113281 13.53125 0.09375 12.5 0.0625 C 11.476562 0.0390625 10.429688 0.0234375 9.359375 0.015625 C 8.296875 0.00390625 7.273438 0 6.296875 0 C 5.804688 0 5.304688 0.0078125 4.796875 0.03125 C 4.296875 0.0507812 3.789062 0.078125 3.28125 0.109375 C 2.769531 0.148438 2.25 0.171875 1.71875 0.171875 Z M 1.71875 0.171875 "/></g></g></g><g fill="#1f3560" fill-opacity="1"><g transform="translate(36.165507, 36.339101)"><g><path d="M 22.4375 0.734375 C 21.4375 0.734375 20.5625 0.617188 19.8125 0.390625 C 19.070312 0.171875 18.429688 -0.144531 17.890625 -0.5625 C 17.359375 -0.976562 16.867188 -1.46875 16.421875 -2.03125 C 15.910156 -2.726562 15.410156 -3.40625 14.921875 -4.0625 C 14.429688 -4.726562 13.9375 -5.460938 13.4375 -6.265625 C 12.9375 -7.078125 12.382812 -8.039062 11.78125 -9.15625 C 11.476562 -9.695312 11.09375 -10.09375 10.625 -10.34375 C 10.320312 -10.507812 10.015625 -10.625 9.703125 -10.6875 C 9.390625 -10.757812 9.125 -10.796875 8.90625 -10.796875 C 8.769531 -10.816406 8.664062 -10.757812 8.59375 -10.625 C 8.53125 -10.488281 8.5 -10.3125 8.5 -10.09375 L 8.5 -3.59375 C 8.5 -2.875 8.6875 -2.316406 9.0625 -1.921875 C 9.445312 -1.523438 10.109375 -1.222656 11.046875 -1.015625 C 11.347656 -0.960938 11.566406 -0.882812 11.703125 -0.78125 C 11.847656 -0.675781 11.921875 -0.53125 11.921875 -0.34375 C 11.921875 -0.1875 11.851562 -0.0703125 11.71875 0 C 11.59375 0.0703125 11.40625 0.109375 11.15625 0.109375 C 10.613281 0.109375 10.0625 0.0859375 9.5 0.046875 C 8.945312 0.015625 8.40625 -0.0078125 7.875 -0.03125 C 7.351562 -0.0507812 6.859375 -0.0625 6.390625 -0.0625 C 5.878906 -0.0625 5.347656 -0.0507812 4.796875 -0.03125 C 4.253906 -0.0078125 3.703125 0.0195312 3.140625 0.0625 C 2.585938 0.113281 2.03125 0.140625 1.46875 0.140625 C 1.257812 0.140625 1.070312 0.0976562 0.90625 0.015625 C 0.75 -0.0664062 0.671875 -0.175781 0.671875 -0.3125 C 0.671875 -0.664062 0.957031 -0.898438 1.53125 -1.015625 C 2.414062 -1.203125 3.046875 -1.457031 3.421875 -1.78125 C 3.796875 -2.101562 3.984375 -2.648438 3.984375 -3.421875 L 3.984375 -18.875 C 3.984375 -19.550781 3.929688 -20.066406 3.828125 -20.421875 C 3.722656 -20.785156 3.519531 -21.0625 3.21875 -21.25 C 2.914062 -21.4375 2.460938 -21.578125 1.859375 -21.671875 C 1.523438 -21.710938 1.285156 -21.800781 1.140625 -21.9375 C 1.003906 -22.082031 0.9375 -22.226562 0.9375 -22.375 C 0.9375 -22.53125 1.007812 -22.648438 1.15625 -22.734375 C 1.3125 -22.816406 1.519531 -22.859375 1.78125 -22.859375 C 2.476562 -22.859375 3.035156 -22.847656 3.453125 -22.828125 C 3.878906 -22.804688 4.285156 -22.773438 4.671875 -22.734375 C 5.054688 -22.703125 5.515625 -22.6875 6.046875 -22.6875 C 6.554688 -22.6875 7.007812 -22.707031 7.40625 -22.75 C 7.800781 -22.800781 8.242188 -22.847656 8.734375 -22.890625 C 9.222656 -22.941406 9.851562 -22.96875 10.625 -22.96875 C 13.300781 -22.96875 15.347656 -22.5 16.765625 -21.5625 C 18.191406 -20.632812 18.90625 -19.210938 18.90625 -17.296875 C 18.90625 -16.253906 18.679688 -15.363281 18.234375 -14.625 C 17.796875 -13.894531 17.242188 -13.296875 16.578125 -12.828125 C 15.921875 -12.359375 15.242188 -12 14.546875 -11.75 C 14.453125 -11.71875 14.410156 -11.65625 14.421875 -11.5625 C 14.429688 -11.46875 14.472656 -11.390625 14.546875 -11.328125 C 15.242188 -10.253906 15.921875 -9.234375 16.578125 -8.265625 C 17.242188 -7.296875 17.941406 -6.378906 18.671875 -5.515625 C 19.410156 -4.660156 20.210938 -3.835938 21.078125 -3.046875 C 21.796875 -2.367188 22.535156 -1.960938 23.296875 -1.828125 C 24.054688 -1.703125 24.84375 -1.640625 25.65625 -1.640625 C 26.007812 -1.640625 26.1875 -1.46875 26.1875 -1.125 C 26.1875 -0.65625 26.007812 -0.285156 25.65625 -0.015625 C 25.300781 0.253906 24.835938 0.445312 24.265625 0.5625 C 23.703125 0.675781 23.09375 0.734375 22.4375 0.734375 Z M 10 -11.8125 C 10.945312 -11.8125 11.742188 -12.023438 12.390625 -12.453125 C 13.035156 -12.890625 13.523438 -13.46875 13.859375 -14.1875 C 14.191406 -14.914062 14.359375 -15.722656 14.359375 -16.609375 C 14.359375 -17.648438 14.226562 -18.535156 13.96875 -19.265625 C 13.71875 -20.003906 13.285156 -20.578125 12.671875 -20.984375 C 12.054688 -21.390625 11.210938 -21.59375 10.140625 -21.59375 C 9.535156 -21.59375 9.117188 -21.378906 8.890625 -20.953125 C 8.671875 -20.523438 8.550781 -19.65625 8.53125 -18.34375 C 8.507812 -17.8125 8.5 -17.109375 8.5 -16.234375 C 8.5 -15.359375 8.5 -14.316406 8.5 -13.109375 C 8.5 -12.597656 8.628906 -12.253906 8.890625 -12.078125 C 9.160156 -11.898438 9.53125 -11.8125 10 -11.8125 Z M 10 -11.8125 "/></g></g></g><g fill="#1f3560" fill-opacity="1"><g transform="translate(61.813615, 36.339101)"><g><path d="M 23.625 0.625 C 23.34375 0.625 22.875 0.445312 22.21875 0.09375 C 21.570312 -0.25 20.910156 -0.851562 20.234375 -1.71875 C 19.835938 -2.15625 19.351562 -2.691406 18.78125 -3.328125 C 18.21875 -3.972656 17.59375 -4.679688 16.90625 -5.453125 C 16.21875 -6.222656 15.5 -7.023438 14.75 -7.859375 C 14 -8.703125 13.253906 -9.539062 12.515625 -10.375 C 11.785156 -11.21875 11.070312 -12.023438 10.375 -12.796875 C 9.675781 -13.566406 9.035156 -14.269531 8.453125 -14.90625 C 7.867188 -15.550781 7.378906 -16.101562 6.984375 -16.5625 C 6.890625 -16.6875 6.789062 -16.785156 6.6875 -16.859375 C 6.582031 -16.941406 6.5 -16.984375 6.4375 -16.984375 C 6.34375 -16.984375 6.269531 -16.898438 6.21875 -16.734375 C 6.175781 -16.578125 6.15625 -16.425781 6.15625 -16.28125 C 6.15625 -15.21875 6.160156 -13.953125 6.171875 -12.484375 C 6.179688 -11.015625 6.1875 -9.519531 6.1875 -8 C 6.1875 -6.488281 6.1875 -5.09375 6.1875 -3.8125 C 6.1875 -3.082031 6.394531 -2.484375 6.8125 -2.015625 C 7.226562 -1.554688 7.894531 -1.222656 8.8125 -1.015625 C 9.09375 -0.960938 9.332031 -0.882812 9.53125 -0.78125 C 9.726562 -0.675781 9.828125 -0.53125 9.828125 -0.34375 C 9.828125 -0.1875 9.734375 -0.0703125 9.546875 0 C 9.359375 0.0703125 9.144531 0.109375 8.90625 0.109375 C 8.28125 0.109375 7.78125 0.09375 7.40625 0.0625 C 7.03125 0.0390625 6.691406 0.0195312 6.390625 0 C 6.085938 -0.0195312 5.707031 -0.03125 5.25 -0.03125 C 4.757812 -0.03125 4.320312 -0.0195312 3.9375 0 C 3.550781 0.0195312 3.207031 0.046875 2.90625 0.078125 C 2.601562 0.117188 2.3125 0.140625 2.03125 0.140625 C 1.789062 0.140625 1.578125 0.0976562 1.390625 0.015625 C 1.210938 -0.0664062 1.125 -0.175781 1.125 -0.3125 C 1.125 -0.5 1.207031 -0.644531 1.375 -0.75 C 1.550781 -0.851562 1.789062 -0.953125 2.09375 -1.046875 C 2.695312 -1.234375 3.144531 -1.578125 3.4375 -2.078125 C 3.726562 -2.578125 3.910156 -3.175781 3.984375 -3.875 C 4.078125 -4.757812 4.171875 -5.914062 4.265625 -7.34375 C 4.359375 -8.78125 4.445312 -10.394531 4.53125 -12.1875 C 4.613281 -13.988281 4.65625 -15.84375 4.65625 -17.75 C 4.65625 -18.96875 4.34375 -19.84375 3.71875 -20.375 C 3.101562 -20.914062 2.328125 -21.347656 1.390625 -21.671875 C 1.234375 -21.710938 1.023438 -21.800781 0.765625 -21.9375 C 0.515625 -22.082031 0.390625 -22.257812 0.390625 -22.46875 C 0.390625 -22.6875 0.476562 -22.828125 0.65625 -22.890625 C 0.84375 -22.960938 1.046875 -23 1.265625 -23 C 1.753906 -23 2.238281 -22.984375 2.71875 -22.953125 C 3.207031 -22.929688 3.703125 -22.914062 4.203125 -22.90625 C 4.710938 -22.894531 5.238281 -22.878906 5.78125 -22.859375 C 6.332031 -22.835938 6.921875 -22.828125 7.546875 -22.828125 C 7.753906 -22.828125 7.910156 -22.785156 8.015625 -22.703125 C 8.117188 -22.617188 8.21875 -22.507812 8.3125 -22.375 C 8.6875 -21.925781 9.164062 -21.367188 9.75 -20.703125 C 10.332031 -20.046875 10.96875 -19.3125 11.65625 -18.5 C 12.34375 -17.695312 13.0625 -16.851562 13.8125 -15.96875 C 14.570312 -15.082031 15.332031 -14.195312 16.09375 -13.3125 C 16.851562 -12.425781 17.582031 -11.582031 18.28125 -10.78125 C 18.976562 -9.976562 19.613281 -9.242188 20.1875 -8.578125 C 20.757812 -7.910156 21.226562 -7.367188 21.59375 -6.953125 C 21.6875 -6.859375 21.796875 -6.738281 21.921875 -6.59375 C 22.054688 -6.457031 22.171875 -6.390625 22.265625 -6.390625 C 22.453125 -6.390625 22.554688 -6.585938 22.578125 -6.984375 C 22.578125 -7.597656 22.578125 -8.375 22.578125 -9.3125 C 22.578125 -10.257812 22.582031 -11.304688 22.59375 -12.453125 C 22.601562 -13.609375 22.601562 -14.789062 22.59375 -16 C 22.582031 -17.21875 22.566406 -18.382812 22.546875 -19.5 C 22.523438 -20.082031 22.285156 -20.539062 21.828125 -20.875 C 21.367188 -21.21875 20.804688 -21.457031 20.140625 -21.59375 C 19.859375 -21.664062 19.59375 -21.753906 19.34375 -21.859375 C 19.101562 -21.960938 18.984375 -22.117188 18.984375 -22.328125 C 18.984375 -22.492188 19.101562 -22.613281 19.34375 -22.6875 C 19.59375 -22.757812 19.820312 -22.796875 20.03125 -22.796875 C 20.5 -22.796875 20.890625 -22.796875 21.203125 -22.796875 C 21.515625 -22.796875 21.8125 -22.785156 22.09375 -22.765625 C 22.375 -22.753906 22.664062 -22.75 22.96875 -22.75 C 23.476562 -22.75 23.894531 -22.753906 24.21875 -22.765625 C 24.550781 -22.785156 24.90625 -22.804688 25.28125 -22.828125 C 25.664062 -22.847656 26.175781 -22.859375 26.8125 -22.859375 C 27.09375 -22.859375 27.316406 -22.816406 27.484375 -22.734375 C 27.660156 -22.648438 27.75 -22.539062 27.75 -22.40625 C 27.75 -22.050781 27.410156 -21.804688 26.734375 -21.671875 C 25.921875 -21.503906 25.34375 -21.28125 25 -21 C 24.664062 -20.726562 24.488281 -20.265625 24.46875 -19.609375 C 24.46875 -19.023438 24.460938 -18.28125 24.453125 -17.375 C 24.441406 -16.46875 24.421875 -15.476562 24.390625 -14.40625 C 24.367188 -13.332031 24.335938 -12.234375 24.296875 -11.109375 C 24.265625 -9.992188 24.242188 -8.898438 24.234375 -7.828125 C 24.222656 -6.753906 24.21875 -5.785156 24.21875 -4.921875 C 24.21875 -4.367188 24.238281 -3.800781 24.28125 -3.21875 C 24.332031 -2.632812 24.382812 -2.113281 24.4375 -1.65625 C 24.5 -1.207031 24.53125 -0.890625 24.53125 -0.703125 C 24.53125 -0.191406 24.445312 0.15625 24.28125 0.34375 C 24.125 0.53125 23.90625 0.625 23.625 0.625 Z M 23.625 0.625 "/></g></g></g></g></g></g><g transform="matrix(1, 0, 0, 1, 59, 18)"><g clip-path="url(#bcfcd08de4)"><g clip-path="url(#70140dead8)"><g fill="#ffffff" fill-opacity="1"><g transform="translate(0.392089, 1.143731)"><g><path d="M 0.15625 -0.546875 C 0.175781 -0.546875 0.191406 -0.535156 0.203125 -0.515625 C 0.210938 -0.503906 0.21875 -0.488281 0.21875 -0.46875 C 0.21875 -0.445312 0.207031 -0.425781 0.1875 -0.40625 C 0.164062 -0.394531 0.144531 -0.390625 0.125 -0.390625 C 0.101562 -0.390625 0.0820312 -0.394531 0.0625 -0.40625 C 0.0390625 -0.425781 0.03125 -0.445312 0.03125 -0.46875 C 0.03125 -0.476562 0.03125 -0.488281 0.03125 -0.5 C 0.0390625 -0.519531 0.0507812 -0.539062 0.0625 -0.5625 L 0.125 -0.703125 L 0.203125 -0.703125 Z M 0.15625 -0.546875 "/></g></g></g></g></g></g></g></g></svg>