<svg xmlns="http://www.w3.org/2000/svg" xmlns:xlink="http://www.w3.org/1999/xlink" width="592" zoomAndPan="magnify" viewBox="0 0 444 182.249993" height="243" preserveAspectRatio="xMidYMid meet" version="1.0"><defs><g/></defs><g fill="#1f3560" fill-opacity="1"><g transform="translate(25.970481, 136.641904)"><g><path d="M 8.09375 33.015625 C -5.882812 33.015625 -12.875 29.988281 -12.875 23.9375 C -12.875 21.84375 -11.960938 19.832031 -10.140625 17.90625 C -8.328125 15.976562 -6.65625 15.015625 -5.125 15.015625 C -3.800781 15.015625 -2.53125 15.316406 -1.3125 15.921875 C -0.101562 16.535156 1.046875 17.554688 2.140625 18.984375 C 4.015625 21.179688 5.5 22.910156 6.59375 24.171875 C 7.695312 25.441406 8.910156 26.078125 10.234375 26.078125 C 13.753906 26.078125 16.394531 23.875 18.15625 19.46875 C 19.914062 15.070312 20.796875 8.363281 20.796875 -0.65625 L 20.796875 -90.953125 C 20.796875 -94.585938 20.023438 -97.175781 18.484375 -98.71875 C 16.941406 -100.257812 14.082031 -101.46875 9.90625 -102.34375 C 7.039062 -102.894531 5.609375 -104.050781 5.609375 -105.8125 C 5.609375 -106.476562 5.992188 -107.003906 6.765625 -107.390625 C 7.535156 -107.773438 8.414062 -107.96875 9.40625 -107.96875 C 12.15625 -107.96875 14.769531 -107.910156 17.25 -107.796875 C 19.726562 -107.679688 22.175781 -107.566406 24.59375 -107.453125 C 27.019531 -107.347656 29.382812 -107.296875 31.6875 -107.296875 C 33.894531 -107.296875 36.097656 -107.347656 38.296875 -107.453125 C 40.492188 -107.566406 42.800781 -107.679688 45.21875 -107.796875 C 47.644531 -107.910156 50.179688 -107.96875 52.828125 -107.96875 C 53.921875 -107.96875 54.796875 -107.773438 55.453125 -107.390625 C 56.117188 -107.003906 56.453125 -106.425781 56.453125 -105.65625 C 56.453125 -104.769531 56.09375 -104.078125 55.375 -103.578125 C 54.664062 -103.085938 53.597656 -102.675781 52.171875 -102.34375 C 47.878906 -101.25 45.125 -99.957031 43.90625 -98.46875 C 42.695312 -96.976562 42.09375 -94.421875 42.09375 -90.796875 L 42.09375 -12.046875 C 42.09375 -8.523438 41.457031 -4.863281 40.1875 -1.0625 C 38.925781 2.726562 37.273438 6.410156 35.234375 9.984375 C 33.203125 13.566406 31.085938 16.785156 28.890625 19.640625 C 25.921875 23.492188 22.671875 26.6875 19.140625 29.21875 C 15.617188 31.75 11.9375 33.015625 8.09375 33.015625 Z M 8.09375 33.015625 "/></g></g></g><g fill="#1f3560" fill-opacity="1"><g transform="translate(83.745099, 136.641904)"><g><path d="M 8.09375 0.828125 C 6.875 0.828125 5.90625 0.601562 5.1875 0.15625 C 4.476562 -0.28125 4.125 -0.828125 4.125 -1.484375 C 4.125 -2.910156 5.554688 -3.957031 8.421875 -4.625 C 12.378906 -5.613281 15.210938 -6.847656 16.921875 -8.328125 C 18.628906 -9.816406 19.484375 -12.378906 19.484375 -16.015625 L 19.484375 -90.796875 C 19.484375 -94.535156 18.738281 -97.175781 17.25 -98.71875 C 15.757812 -100.257812 12.984375 -101.46875 8.921875 -102.34375 C 7.378906 -102.675781 6.273438 -103.144531 5.609375 -103.75 C 4.953125 -104.351562 4.625 -104.988281 4.625 -105.65625 C 4.625 -106.425781 4.976562 -107.003906 5.6875 -107.390625 C 6.40625 -107.773438 7.367188 -107.96875 8.578125 -107.96875 C 11.773438 -107.96875 14.832031 -107.910156 17.75 -107.796875 C 20.664062 -107.679688 23.5 -107.566406 26.25 -107.453125 C 29 -107.347656 31.859375 -107.296875 34.828125 -107.296875 C 39.890625 -107.296875 45.253906 -107.347656 50.921875 -107.453125 C 56.585938 -107.566406 61.679688 -107.625 66.203125 -107.625 C 69.828125 -107.738281 72.820312 -107.90625 75.1875 -108.125 C 77.5625 -108.34375 78.96875 -108.453125 79.40625 -108.453125 C 80.175781 -108.453125 80.972656 -108.285156 81.796875 -107.953125 C 82.617188 -107.628906 83.085938 -106.972656 83.203125 -105.984375 C 83.640625 -102.347656 84.1875 -98.769531 84.84375 -95.25 C 85.507812 -91.726562 85.84375 -88.644531 85.84375 -86 C 85.84375 -85.007812 85.59375 -84.265625 85.09375 -83.765625 C 84.601562 -83.273438 84.082031 -83.03125 83.53125 -83.03125 C 82.976562 -83.03125 82.484375 -83.222656 82.046875 -83.609375 C 81.609375 -83.992188 81.222656 -84.570312 80.890625 -85.34375 C 80.003906 -87.875 79.175781 -90.070312 78.40625 -91.9375 C 77.632812 -93.8125 76.753906 -95.242188 75.765625 -96.234375 C 74.335938 -97.773438 72.6875 -98.984375 70.8125 -99.859375 C 68.945312 -100.742188 66.691406 -101.1875 64.046875 -101.1875 L 48.703125 -101.1875 C 46.722656 -101.1875 44.90625 -100.609375 43.25 -99.453125 C 41.601562 -98.296875 40.78125 -96.675781 40.78125 -94.59375 L 40.78125 -62.234375 C 40.78125 -61.023438 41.132812 -60.085938 41.84375 -59.421875 C 42.5625 -58.765625 43.414062 -58.4375 44.40625 -58.4375 L 59.59375 -58.4375 C 62.5625 -58.4375 64.675781 -59.257812 65.9375 -60.90625 C 67.207031 -62.5625 68.285156 -64.820312 69.171875 -67.6875 C 69.941406 -69.882812 70.984375 -70.984375 72.296875 -70.984375 C 72.847656 -70.984375 73.34375 -70.679688 73.78125 -70.078125 C 74.226562 -69.472656 74.453125 -68.675781 74.453125 -67.6875 C 74.335938 -66.582031 74.222656 -65.257812 74.109375 -63.71875 C 74.003906 -62.175781 73.925781 -60.632812 73.875 -59.09375 C 73.820312 -57.550781 73.796875 -56.175781 73.796875 -54.96875 C 73.796875 -53.644531 73.820312 -52.15625 73.875 -50.5 C 73.925781 -48.851562 73.976562 -47.234375 74.03125 -45.640625 C 74.09375 -44.046875 74.175781 -42.695312 74.28125 -41.59375 C 74.394531 -40.382812 74.3125 -39.445312 74.03125 -38.78125 C 73.757812 -38.125 73.296875 -37.796875 72.640625 -37.796875 C 70.878906 -37.796875 69.613281 -39.335938 68.84375 -42.421875 C 67.957031 -45.503906 66.910156 -47.816406 65.703125 -49.359375 C 64.492188 -50.898438 62.84375 -51.671875 60.75 -51.671875 L 45.234375 -51.671875 C 43.796875 -51.671875 42.691406 -51.394531 41.921875 -50.84375 C 41.160156 -50.289062 40.78125 -49.242188 40.78125 -47.703125 L 40.78125 -16.34375 C 40.78125 -12.707031 41.546875 -10.175781 43.078125 -8.75 C 44.617188 -7.320312 46.988281 -6.609375 50.1875 -6.609375 L 63.71875 -6.609375 C 66.46875 -6.609375 68.96875 -6.878906 71.21875 -7.421875 C 73.476562 -7.972656 75.4375 -8.851562 77.09375 -10.0625 C 78.957031 -11.382812 80.632812 -13.171875 82.125 -15.421875 C 83.613281 -17.679688 85.070312 -20.191406 86.5 -22.953125 C 86.9375 -23.828125 87.375 -24.398438 87.8125 -24.671875 C 88.257812 -24.953125 88.8125 -25.09375 89.46875 -25.09375 C 90.019531 -24.976562 90.429688 -24.644531 90.703125 -24.09375 C 90.984375 -23.550781 91.125 -22.945312 91.125 -22.28125 C 91.125 -20.738281 90.847656 -18.757812 90.296875 -16.34375 C 89.742188 -13.925781 89.054688 -11.421875 88.234375 -8.828125 C 87.410156 -6.242188 86.664062 -3.851562 86 -1.65625 C 85.675781 -0.882812 85.238281 -0.304688 84.6875 0.078125 C 84.132812 0.460938 83.472656 0.65625 82.703125 0.65625 C 80.066406 0.65625 76.679688 0.628906 72.546875 0.578125 C 68.421875 0.523438 63.9375 0.441406 59.09375 0.328125 C 54.25 0.222656 49.296875 0.140625 44.234375 0.078125 C 39.171875 0.0234375 34.332031 0 29.71875 0 C 27.40625 0 25.066406 0.0507812 22.703125 0.15625 C 20.335938 0.269531 17.941406 0.410156 15.515625 0.578125 C 13.097656 0.742188 10.625 0.828125 8.09375 0.828125 Z M 8.09375 0.828125 "/></g></g></g><g fill="#1f3560" fill-opacity="1"><g transform="translate(176.349629, 136.641904)"><g><path d="M 105.984375 3.46875 C 101.242188 3.46875 97.113281 2.941406 93.59375 1.890625 C 90.070312 0.847656 87.046875 -0.660156 84.515625 -2.640625 C 81.984375 -4.617188 79.675781 -6.929688 77.59375 -9.578125 C 75.164062 -12.878906 72.796875 -16.097656 70.484375 -19.234375 C 68.171875 -22.367188 65.832031 -25.832031 63.46875 -29.625 C 61.101562 -33.425781 58.488281 -37.96875 55.625 -43.25 C 54.195312 -45.78125 52.382812 -47.648438 50.1875 -48.859375 C 48.75 -49.628906 47.285156 -50.179688 45.796875 -50.515625 C 44.316406 -50.847656 43.082031 -51.015625 42.09375 -51.015625 C 41.4375 -51.117188 40.941406 -50.835938 40.609375 -50.171875 C 40.273438 -49.515625 40.109375 -48.691406 40.109375 -47.703125 L 40.109375 -17 C 40.109375 -13.59375 41.015625 -10.953125 42.828125 -9.078125 C 44.648438 -7.203125 47.765625 -5.769531 52.171875 -4.78125 C 53.597656 -4.5625 54.640625 -4.203125 55.296875 -3.703125 C 55.960938 -3.210938 56.296875 -2.53125 56.296875 -1.65625 C 56.296875 -0.882812 55.988281 -0.332031 55.375 0 C 54.769531 0.332031 53.863281 0.5 52.65625 0.5 C 50.125 0.5 47.535156 0.414062 44.890625 0.25 C 42.253906 0.0820312 39.695312 -0.0507812 37.21875 -0.15625 C 34.75 -0.269531 32.410156 -0.328125 30.203125 -0.328125 C 27.785156 -0.328125 25.28125 -0.269531 22.6875 -0.15625 C 20.101562 -0.0507812 17.488281 0.109375 14.84375 0.328125 C 12.207031 0.546875 9.570312 0.65625 6.9375 0.65625 C 5.945312 0.65625 5.066406 0.460938 4.296875 0.078125 C 3.523438 -0.304688 3.140625 -0.828125 3.140625 -1.484375 C 3.140625 -3.140625 4.515625 -4.238281 7.265625 -4.78125 C 11.441406 -5.664062 14.410156 -6.878906 16.171875 -8.421875 C 17.929688 -9.960938 18.8125 -12.546875 18.8125 -16.171875 L 18.8125 -89.140625 C 18.8125 -92.328125 18.5625 -94.773438 18.0625 -96.484375 C 17.570312 -98.191406 16.613281 -99.484375 15.1875 -100.359375 C 13.757812 -101.242188 11.613281 -101.90625 8.75 -102.34375 C 7.207031 -102.5625 6.101562 -103 5.4375 -103.65625 C 4.78125 -104.320312 4.453125 -104.988281 4.453125 -105.65625 C 4.453125 -106.425781 4.8125 -107.003906 5.53125 -107.390625 C 6.25 -107.773438 7.210938 -107.96875 8.421875 -107.96875 C 11.722656 -107.96875 14.363281 -107.910156 16.34375 -107.796875 C 18.320312 -107.679688 20.21875 -107.539062 22.03125 -107.375 C 23.851562 -107.21875 26.03125 -107.140625 28.5625 -107.140625 C 30.976562 -107.140625 33.117188 -107.25 34.984375 -107.46875 C 36.859375 -107.6875 38.953125 -107.90625 41.265625 -108.125 C 43.578125 -108.34375 46.550781 -108.453125 50.1875 -108.453125 C 62.84375 -108.453125 72.523438 -106.25 79.234375 -101.84375 C 85.953125 -97.445312 89.3125 -90.738281 89.3125 -81.71875 C 89.3125 -76.757812 88.265625 -72.546875 86.171875 -69.078125 C 84.078125 -65.617188 81.460938 -62.785156 78.328125 -60.578125 C 75.191406 -58.378906 71.972656 -56.675781 68.671875 -55.46875 C 68.234375 -55.351562 68.039062 -55.078125 68.09375 -54.640625 C 68.144531 -54.203125 68.335938 -53.816406 68.671875 -53.484375 C 71.972656 -48.421875 75.191406 -43.601562 78.328125 -39.03125 C 81.460938 -34.46875 84.765625 -30.148438 88.234375 -26.078125 C 91.703125 -22.003906 95.472656 -18.097656 99.546875 -14.359375 C 102.953125 -11.171875 106.441406 -9.273438 110.015625 -8.671875 C 113.597656 -8.066406 117.316406 -7.765625 121.171875 -7.765625 C 122.816406 -7.765625 123.640625 -6.9375 123.640625 -5.28125 C 123.640625 -3.082031 122.8125 -1.347656 121.15625 -0.078125 C 119.507812 1.179688 117.335938 2.085938 114.640625 2.640625 C 111.953125 3.191406 109.066406 3.46875 105.984375 3.46875 Z M 47.21875 -55.796875 C 51.726562 -55.796875 55.492188 -56.8125 58.515625 -58.84375 C 61.546875 -60.882812 63.859375 -63.609375 65.453125 -67.015625 C 67.046875 -70.429688 67.84375 -74.226562 67.84375 -78.40625 C 67.84375 -83.363281 67.238281 -87.570312 66.03125 -91.03125 C 64.820312 -94.5 62.757812 -97.195312 59.84375 -99.125 C 56.925781 -101.050781 52.9375 -102.015625 47.875 -102.015625 C 45.007812 -102.015625 43.050781 -100.992188 42 -98.953125 C 40.957031 -96.921875 40.382812 -92.828125 40.28125 -86.671875 C 40.164062 -84.140625 40.109375 -80.804688 40.109375 -76.671875 C 40.109375 -72.546875 40.109375 -67.625 40.109375 -61.90625 C 40.109375 -59.476562 40.738281 -57.851562 42 -57.03125 C 43.269531 -56.207031 45.007812 -55.796875 47.21875 -55.796875 Z M 47.21875 -55.796875 "/></g></g></g><g fill="#1f3560" fill-opacity="1"><g transform="translate(297.511377, 136.641904)"><g><path d="M 111.59375 2.96875 C 110.269531 2.96875 108.066406 2.140625 104.984375 0.484375 C 101.910156 -1.160156 98.773438 -4.019531 95.578125 -8.09375 C 93.710938 -10.175781 91.429688 -12.726562 88.734375 -15.75 C 86.035156 -18.78125 83.0625 -22.113281 79.8125 -25.75 C 76.570312 -29.382812 73.1875 -33.179688 69.65625 -37.140625 C 66.132812 -41.097656 62.640625 -45.054688 59.171875 -49.015625 C 55.710938 -52.984375 52.332031 -56.78125 49.03125 -60.40625 C 45.726562 -64.039062 42.703125 -67.375 39.953125 -70.40625 C 37.203125 -73.4375 34.890625 -76.050781 33.015625 -78.25 C 32.578125 -78.800781 32.109375 -79.269531 31.609375 -79.65625 C 31.117188 -80.039062 30.707031 -80.234375 30.375 -80.234375 C 29.9375 -80.234375 29.601562 -79.847656 29.375 -79.078125 C 29.15625 -78.304688 29.046875 -77.585938 29.046875 -76.921875 C 29.046875 -71.859375 29.070312 -65.859375 29.125 -58.921875 C 29.1875 -51.992188 29.21875 -44.953125 29.21875 -37.796875 C 29.21875 -30.648438 29.21875 -24.050781 29.21875 -18 C 29.21875 -14.582031 30.207031 -11.769531 32.1875 -9.5625 C 34.164062 -7.363281 37.300781 -5.769531 41.59375 -4.78125 C 42.914062 -4.5625 44.046875 -4.203125 44.984375 -3.703125 C 45.921875 -3.210938 46.390625 -2.53125 46.390625 -1.65625 C 46.390625 -0.882812 45.945312 -0.332031 45.0625 0 C 44.1875 0.332031 43.195312 0.5 42.09375 0.5 C 39.125 0.5 36.757812 0.441406 35 0.328125 C 33.238281 0.222656 31.640625 0.113281 30.203125 0 C 28.773438 -0.113281 26.960938 -0.171875 24.765625 -0.171875 C 22.453125 -0.171875 20.382812 -0.113281 18.5625 0 C 16.75 0.113281 15.128906 0.25 13.703125 0.40625 C 12.273438 0.570312 10.898438 0.65625 9.578125 0.65625 C 8.472656 0.65625 7.476562 0.460938 6.59375 0.078125 C 5.71875 -0.304688 5.28125 -0.828125 5.28125 -1.484375 C 5.28125 -2.367188 5.691406 -3.054688 6.515625 -3.546875 C 7.347656 -4.046875 8.476562 -4.515625 9.90625 -4.953125 C 12.769531 -5.828125 14.890625 -7.445312 16.265625 -9.8125 C 17.640625 -12.1875 18.488281 -15.023438 18.8125 -18.328125 C 19.257812 -22.503906 19.703125 -27.976562 20.140625 -34.75 C 20.578125 -41.519531 20.988281 -49.140625 21.375 -57.609375 C 21.757812 -66.085938 21.953125 -74.835938 21.953125 -83.859375 C 21.953125 -89.578125 20.492188 -93.703125 17.578125 -96.234375 C 14.660156 -98.765625 11.003906 -100.800781 6.609375 -102.34375 C 5.835938 -102.5625 4.84375 -103 3.625 -103.65625 C 2.414062 -104.320312 1.8125 -105.148438 1.8125 -106.140625 C 1.8125 -107.128906 2.25 -107.789062 3.125 -108.125 C 4.007812 -108.457031 4.945312 -108.625 5.9375 -108.625 C 8.25 -108.625 10.5625 -108.566406 12.875 -108.453125 C 15.1875 -108.347656 17.523438 -108.265625 19.890625 -108.203125 C 22.253906 -108.148438 24.726562 -108.066406 27.3125 -107.953125 C 29.90625 -107.847656 32.6875 -107.796875 35.65625 -107.796875 C 36.644531 -107.796875 37.382812 -107.601562 37.875 -107.21875 C 38.375 -106.832031 38.84375 -106.3125 39.28125 -105.65625 C 41.050781 -103.5625 43.3125 -100.945312 46.0625 -97.8125 C 48.8125 -94.675781 51.804688 -91.207031 55.046875 -87.40625 C 58.296875 -83.613281 61.707031 -79.625 65.28125 -75.4375 C 68.863281 -71.257812 72.441406 -67.078125 76.015625 -62.890625 C 79.597656 -58.710938 83.035156 -54.722656 86.328125 -50.921875 C 89.628906 -47.128906 92.628906 -43.664062 95.328125 -40.53125 C 98.023438 -37.394531 100.253906 -34.832031 102.015625 -32.84375 C 102.453125 -32.40625 102.972656 -31.851562 103.578125 -31.1875 C 104.191406 -30.53125 104.71875 -30.203125 105.15625 -30.203125 C 106.03125 -30.203125 106.523438 -31.140625 106.640625 -33.015625 C 106.640625 -35.878906 106.640625 -39.535156 106.640625 -43.984375 C 106.640625 -48.441406 106.664062 -53.394531 106.71875 -58.84375 C 106.78125 -64.289062 106.78125 -69.875 106.71875 -75.59375 C 106.664062 -81.320312 106.582031 -86.828125 106.46875 -92.109375 C 106.363281 -94.859375 105.238281 -97.03125 103.09375 -98.625 C 100.945312 -100.226562 98.273438 -101.359375 95.078125 -102.015625 C 93.765625 -102.347656 92.53125 -102.757812 91.375 -103.25 C 90.21875 -103.75 89.640625 -104.492188 89.640625 -105.484375 C 89.640625 -106.253906 90.21875 -106.800781 91.375 -107.125 C 92.53125 -107.457031 93.601562 -107.625 94.59375 -107.625 C 96.789062 -107.625 98.628906 -107.625 100.109375 -107.625 C 101.597656 -107.625 103.003906 -107.597656 104.328125 -107.546875 C 105.648438 -107.492188 107.023438 -107.46875 108.453125 -107.46875 C 110.878906 -107.46875 112.859375 -107.492188 114.390625 -107.546875 C 115.929688 -107.597656 117.609375 -107.679688 119.421875 -107.796875 C 121.242188 -107.910156 123.640625 -107.96875 126.609375 -107.96875 C 127.929688 -107.96875 129.003906 -107.773438 129.828125 -107.390625 C 130.660156 -107.003906 131.078125 -106.476562 131.078125 -105.8125 C 131.078125 -104.164062 129.476562 -103.007812 126.28125 -102.34375 C 122.425781 -101.570312 119.703125 -100.523438 118.109375 -99.203125 C 116.515625 -97.890625 115.664062 -95.691406 115.5625 -92.609375 C 115.5625 -89.859375 115.53125 -86.335938 115.46875 -82.046875 C 115.414062 -77.753906 115.332031 -73.078125 115.21875 -68.015625 C 115.113281 -62.953125 114.976562 -57.78125 114.8125 -52.5 C 114.644531 -47.21875 114.535156 -42.046875 114.484375 -36.984375 C 114.429688 -31.921875 114.40625 -27.351562 114.40625 -23.28125 C 114.40625 -20.632812 114.515625 -17.9375 114.734375 -15.1875 C 114.953125 -12.4375 115.195312 -9.988281 115.46875 -7.84375 C 115.75 -5.695312 115.890625 -4.179688 115.890625 -3.296875 C 115.890625 -0.878906 115.503906 0.765625 114.734375 1.640625 C 113.960938 2.523438 112.914062 2.96875 111.59375 2.96875 Z M 111.59375 2.96875 "/></g></g></g></svg>
